<svg
  xmlns="http://www.w3.org/2000/svg"
  width="24"
  height="24"
  viewBox="0 0 24 24"
  fill="none"
  stroke="currentColor"
  stroke-width="2"
  stroke-linecap="round"
  stroke-linejoin="round"
>
  <line x1="6" x2="10" y1="11" y2="11" />
  <line x1="8" x2="8" y1="9" y2="13" />
  <line x1="15" x2="15.01" y1="12" y2="12" />
  <line x1="18" x2="18.01" y1="10" y2="10" />
  <path d="M17.32 5H6.68L2.7 8.59c-.006.052-.01.101-.017.152C2.604 9.416 2 14.456 2 16L5 19c1 0 1.5-.5 2-1l1.414-1.414L9.828 16h4.344L15.586 16.586 17 18c.5.5 1 1 2 1L22 16c0-1.545-.604-6.584-.685-7.258-.007-.05-.011-.1-.017-.151L17.32 5z" />
</svg>
