<svg xmlns="http://www.w3.org/2000/svg" width="24" height="24" viewBox="0 0 24 24" fill="none" stroke="currentColor" stroke-width="2" stroke-linecap="round" stroke-linejoin="round">
  <path class="transparent-fill foreground-stroke" stroke-width="2" d="M6 11L10 11" />
  <path class="transparent-fill foreground-stroke" stroke-width="2" d="M8 9L8 13" />
  <path class="transparent-fill foreground-stroke" stroke-width="2" d="M15 12L15.01 12" />
  <path class="transparent-fill foreground-stroke" stroke-width="2" d="M18 10L18.01 10" />
  <path class="transparent-fill foreground-stroke" stroke-width="2" d="M17.32 5H6.68L2.7 8.59c-.006.052-.01.101-.017.152C2.604 9.416 2 14.456 2 16L5 19c1 0 1.5-.5 2-1l1.414-1.414L9.828 16h4.344L15.586 16.586 17 18c.5.5 1 1 2 1L22 16c0-1.545-.604-6.584-.685-7.258-.007-.05-.011-.1-.017-.151L17.32 5z" />
</svg>
